<svg width="34" height="46" viewBox="0 0 34 46" fill="none" xmlns="http://www.w3.org/2000/svg">
<path d="M17.2091 0.753065C18.8196 0.810583 20.4301 1.09817 22.0405 1.61583C24.2919 2.25141 26.2974 3.55502 27.7923 5.35445C28.8851 6.79238 29.5753 8.5179 29.8054 10.3009C30.1158 12.2224 30.1545 14.178 29.9204 16.1102L29.6328 18.0658L29.4028 19.2161C29.3452 19.3312 29.3452 19.3312 29.2302 19.3312C29.1152 19.1011 29.1152 18.871 29.1152 18.641C29.0577 17.7782 29.1727 16.9729 29.2302 16.1102C29.2877 14.7298 29.4028 13.3494 29.2877 11.9689L28.9426 9.38066C28.54 7.77018 27.7923 6.27473 26.6419 5.06686C25.6066 4.03155 24.3412 3.16879 23.0183 2.59362C21.753 2.07596 20.4876 1.73086 19.1647 1.50079C18.1294 1.32824 17.094 1.27072 16.0587 1.27072C13.5065 1.22892 10.9815 1.80098 8.69652 2.93872C7.9488 3.45638 7.25859 4.08907 6.68342 4.77928C4.91357 7.10251 3.81894 9.86895 3.51996 12.7742C3.46245 14.1546 3.51996 15.4775 3.9801 16.8004L4.38272 17.6632L5.07293 17.7207L5.13045 17.8932C4.9579 18.0083 4.72783 18.0083 4.49776 18.0658C3.92259 18.1808 3.34741 18.4109 2.82976 18.756C2.42714 19.0436 2.02451 19.3887 1.79444 19.8488C1.50686 20.424 1.62189 21.1142 1.73693 21.7469C2.02451 22.8397 2.71472 23.875 3.635 24.5652C4.26769 25.0829 5.07293 25.3705 5.87817 25.4855C6.45335 25.6005 7.02852 25.4855 7.60369 25.428C7.89128 25.6581 8.06383 26.1182 8.23638 26.4058L9.2717 27.9588C10.2074 29.2886 11.5343 30.2939 13.0678 30.8346C14.3332 31.3523 15.6561 31.6399 16.979 31.9274L19.3372 32.3876L20.315 32.6752V32.9052H19.6248C18.3319 32.8331 17.0447 32.6794 15.7712 32.4451C14.0606 32.1047 12.4245 31.4619 10.9397 30.547C10.307 30.1444 9.73183 29.6268 9.2717 28.9941C9.67007 31.3914 9.34986 33.853 8.35142 36.0687C7.48866 37.6217 6.05073 38.8295 4.32521 39.3472C4.15265 39.4047 3.92259 39.4622 3.75003 39.4047C3.635 39.4047 3.635 39.3472 3.635 39.2321C3.69252 39.0596 3.86507 38.9446 3.9801 38.887C4.67031 38.4269 5.47555 38.0818 6.16576 37.5641C6.91349 36.9315 7.54618 36.2412 7.9488 35.3785C8.2939 34.5157 8.52397 33.5379 8.63901 32.5601C8.75404 31.8124 8.81156 31.0647 8.75404 30.2594L8.52397 28.0738L7.48866 26.0032L6.39583 26.2332C5.55152 26.2578 4.71449 26.0707 3.96102 25.6889C3.20755 25.3072 2.5616 24.7429 2.08203 24.0476C1.33227 23.0977 0.926746 21.9217 0.931685 20.7116C0.931685 20.1939 1.10424 19.6763 1.39182 19.2736C1.67941 18.871 2.08203 18.5259 2.48465 18.2958C2.77224 18.0658 3.17486 17.9507 3.51996 17.8357L3.00231 16.4553C2.71472 15.1899 2.71472 13.867 2.88727 12.6016C3.26392 9.46068 4.51999 6.48997 6.51087 4.03155C7.02852 3.45638 7.54618 2.93872 8.17887 2.5361C8.58149 2.30603 8.98411 2.24852 9.32921 2.01845C11.8025 0.925617 14.5058 0.580514 17.2091 0.753065Z" fill="#262626"/>
<path d="M16.0581 1.26915C18.448 1.18026 20.8271 1.63248 23.0177 2.59205C24.3406 3.16723 25.6059 4.02999 26.6413 5.0653C27.7916 6.27316 28.5393 7.76861 28.9419 9.3791L29.287 11.9674C29.4021 13.3478 29.287 14.7282 29.2295 16.1086C29.172 16.9714 29.057 17.7766 29.1145 18.6394C29.1145 18.8695 29.1145 19.0995 29.2295 19.3296L29.172 20.4799C29.057 20.7675 29.057 21.0551 29.057 21.4002C28.9419 22.7806 28.9419 24.2186 28.7119 25.6565C28.6544 26.3467 28.5393 27.0944 28.2517 27.7271C28.0792 28.2448 27.7916 28.7049 27.389 29.1075C26.6988 29.8553 25.836 30.4879 24.9157 31.0056C23.8229 31.6383 22.6726 31.9259 21.5797 32.386C21.2921 32.5011 21.0046 32.6161 20.832 32.8462C21.2921 32.9037 21.6948 32.8462 22.1549 32.7311C21.8673 33.4213 21.8098 34.1115 21.8098 34.8017C21.8098 35.0893 21.7523 35.4344 21.8673 35.722C22.0399 36.0096 22.3275 36.2397 22.615 36.4122L24.6281 37.16C25.8935 37.6201 27.1014 38.1953 28.3668 38.7129C28.4818 38.943 28.6544 39.1155 28.7119 39.4031C29.057 40.0358 29.1145 40.726 28.8844 41.4162C28.5968 42.164 28.0217 42.7966 27.3315 43.1993C26.4112 43.832 25.2608 44.2921 24.168 44.5797C19.6957 45.5352 15.0589 45.3971 10.6514 44.1771C9.50109 43.7744 8.35075 43.3718 7.31544 42.7966C6.51019 42.3365 5.64744 41.7613 5.01474 41.0136C4.66964 40.5535 4.38205 39.9208 4.32454 39.3456C5.67136 38.9345 6.86335 38.1278 7.74552 37.0302C8.62769 35.9326 9.15923 34.595 9.27103 33.1913C9.50109 31.8108 9.50109 30.3729 9.27103 28.9925C9.73116 29.6252 10.3063 30.1428 10.939 30.5455L12.492 31.3507C14.747 32.3235 17.1688 32.8509 19.6241 32.9037H20.3143V32.6736L19.3366 32.386L16.9783 31.9259C15.6554 31.6383 14.3325 31.3507 13.0672 30.833C12.3194 30.4879 11.5142 30.0853 10.824 29.6252C10.2488 29.1075 9.73116 28.5899 9.27103 27.9572L8.23571 26.4042C8.06316 26.1166 7.89061 25.6565 7.60302 25.4264C7.02785 25.4839 6.45268 25.599 5.8775 25.4839C5.07226 25.3689 4.26702 25.0813 3.63433 24.5637C2.7152 23.8526 2.04963 22.8643 1.73626 21.7453C1.62122 21.1126 1.50619 20.4224 1.79378 19.8472C2.02384 19.3871 2.42647 19.042 2.82909 18.7544C3.34674 18.4093 3.92192 18.1792 4.49709 18.0642C4.72716 18.0067 4.95723 18.0067 5.12978 17.8917L5.07226 17.7191L4.38205 17.6616L3.97943 16.7988C3.51929 15.4759 3.46178 14.153 3.57681 12.7726C3.85894 9.87315 4.93348 7.10721 6.68275 4.77771C7.25792 4.0875 7.94813 3.45481 8.69585 2.93716C10.9759 1.77951 13.5011 1.18767 16.0581 1.21164V1.26915Z" fill="#FFDECC"/>
<path d="M3.69336 20.1406C3.92343 20.1406 4.09598 20.1406 4.32605 20.2557C4.61364 20.3132 4.95874 20.4857 5.13129 20.7158C5.24633 20.8884 5.24633 21.1184 5.13129 21.291C4.84371 21.6361 4.44108 21.8661 4.21102 22.2112C4.55612 22.4413 5.01626 22.5564 5.41888 22.7289C5.64895 22.7864 5.87902 22.9015 6.05157 23.074L6.10909 23.2466L5.64895 23.1315L4.26853 22.7289C4.03846 22.6714 3.80839 22.5564 3.75088 22.3263C3.69336 22.1537 3.80839 21.9237 3.92343 21.7511L4.78619 21.0034C4.55612 20.6008 3.92343 20.5432 3.69336 20.1406ZM29.1735 20.4857L29.2886 20.6583L29.4036 21.5786C29.5229 23.2848 29.4844 24.9984 29.2886 26.6976C29.1735 27.3303 29.001 28.0205 28.7134 28.5957C27.1873 30.5923 25.0437 32.0281 22.6166 32.6794C22.559 33.4846 22.444 34.4624 22.5015 35.3827L22.7891 35.6703C23.2492 36.0154 23.8244 36.188 24.3421 36.3605C25.6875 36.79 26.9955 37.3286 28.2533 37.971C28.6559 38.2011 29.001 38.4886 29.2886 38.8337C29.001 38.8913 28.7134 38.7762 28.3683 38.7187C27.1029 38.2011 25.895 37.6259 24.6297 37.1657L22.6166 36.418C22.329 36.2455 22.0414 36.0154 21.8688 35.7278C21.7538 35.4402 21.8113 35.0951 21.8113 34.8075C21.8113 34.1173 21.8688 33.4271 22.1564 32.7369C21.6963 32.852 21.2937 32.9095 20.8335 32.852C21.0061 32.6219 21.2937 32.5068 21.5812 32.3918C22.6741 31.9317 23.8244 31.6441 24.9172 31.0114C25.8375 30.4937 26.7003 29.8611 27.3905 29.1133C27.7931 28.7107 28.0807 28.2506 28.2533 27.7329C28.5408 27.1002 28.6559 26.3525 28.7134 25.6623C28.9435 24.2244 28.9435 22.7864 29.0585 21.406C29.0585 21.0609 29.0585 20.7733 29.1735 20.4857Z" fill="#262626"/>
<path d="M28.5975 16.625L28.4824 17.0276C28.3099 17.3152 28.1373 17.5453 27.8497 17.7178C27.5622 17.8904 27.2171 17.9479 26.8719 18.0054L25.8366 18.1205C25.5491 18.1205 25.3765 18.293 25.2615 18.4656L24.8588 18.8682C24.7438 18.9257 24.5713 18.8107 24.6288 18.6956C24.6863 18.2355 25.0314 17.8904 25.2615 17.5453C25.434 17.3727 25.6641 17.1427 25.9517 17.1427L27.6772 16.8551C27.9648 16.7976 28.2524 16.625 28.5975 16.625ZM11.0547 16.8551C11.7449 16.7976 12.2626 17.0276 12.8952 17.0851C13.758 17.2002 14.6208 17.3152 15.4835 17.3152L16.8639 17.4302C17.3241 17.4878 17.8417 17.4302 18.2444 17.6603C18.647 17.8904 18.9346 18.2355 19.1646 18.5806C19.2221 18.6956 19.2797 18.8107 19.1646 18.9832C19.1071 19.0407 18.9921 18.9832 18.9346 18.9257C18.7045 18.8107 18.5319 18.5806 18.3019 18.5231L17.6117 18.4656L16.0012 18.408L14.7358 18.3505C14.1606 18.293 13.5854 18.293 13.0103 18.0629C12.6077 17.9479 12.3201 17.7178 11.9174 17.5453L11.2272 17.0276C11.1122 16.9701 11.0547 16.9701 11.0547 16.8551Z" fill="#262626"/>
<path d="M17.6686 9.95487C18.0712 9.95487 18.4739 10.0699 18.7615 10.3C18.9915 10.415 19.1641 10.53 19.2216 10.7601C19.2791 10.8751 19.2216 11.0477 19.1066 11.1052C18.819 11.1627 18.5314 10.9902 18.3013 10.9327L17.7837 10.8751C17.0359 10.8176 16.2882 10.9327 15.5405 11.1052C14.2819 11.4613 13.1081 12.0678 12.0894 12.8882C11.8594 13.0033 11.5718 13.1758 11.2842 13.1183C11.1116 13.1183 11.1116 12.8882 11.1692 12.7157C11.2267 12.3706 11.5718 12.083 11.8594 11.7954C12.4345 11.2778 13.1823 10.9327 13.8725 10.6451C15.0228 10.1274 16.4032 9.83983 17.6686 9.95487ZM26.6413 10.0699C27.0439 9.95487 27.4466 10.0124 27.7917 10.2425C28.0217 10.415 28.2518 10.5876 28.3093 10.8751C28.3668 11.0477 28.3668 11.2202 28.1943 11.2778C28.0217 11.3353 27.7917 11.3353 27.6191 11.2202C27.3315 11.0477 27.1015 10.8751 26.7564 10.8751C26.4688 10.8751 26.1812 10.9327 25.9511 11.0477C25.491 11.2778 25.0308 11.6804 24.8008 12.1405L24.4557 12.6582H24.2831V12.3131C24.3981 11.8529 24.6857 11.3928 25.0308 11.0477C25.4335 10.5876 26.0086 10.1849 26.6413 10.0699Z" fill="#262626"/>
<path d="M1.16163 20.0248C1.44921 20.0248 1.7368 19.9673 1.96687 20.1399C2.13942 20.2549 2.25446 20.4274 2.19694 20.6575C2.08191 20.8876 1.85184 21.0601 1.56425 21.0601H0.643973C0.356386 21.0026 0.126317 20.8876 0.0112822 20.6575C-0.0462351 20.4274 0.126317 20.2549 0.298869 20.1399C0.586455 20.0248 0.874042 20.0823 1.16163 20.0248ZM1.90935 21.3477C2.08191 21.4052 2.31197 21.5203 2.31197 21.7503C2.31197 21.9229 2.25446 22.0955 2.08191 22.153C1.79432 22.383 1.44921 22.383 1.10411 22.4981C0.816524 22.5556 0.528938 22.6131 0.298869 22.4406C0.0687995 22.268 0.126317 21.9229 0.298869 21.7503C0.528938 21.5203 0.759007 21.5203 1.04659 21.4628C1.33418 21.4052 1.62177 21.2902 1.90935 21.3477ZM6.0506 24.3386H6.51074C6.68329 24.3961 6.85584 24.5687 6.85584 24.7988C6.85584 25.0864 6.62577 25.3164 6.33819 25.3739C6.0506 25.489 5.82053 25.2589 5.7055 25.0288C5.64798 24.7412 5.76301 24.3961 6.0506 24.3386Z" fill="#262626"/>
<path d="M23.6509 22.1484C23.6509 22.321 23.5359 22.4935 23.4208 22.6661C23.1908 23.0112 22.7882 23.2413 22.3855 23.3563C22.098 23.4138 21.8679 23.2413 21.6378 23.3563C21.4077 23.3563 21.1777 23.4138 20.9476 23.2988C20.8326 23.2413 20.8326 23.0687 20.9476 22.9537C21.1202 22.7236 21.4077 22.5511 21.6378 22.5511C21.8679 22.4935 22.0404 22.4935 22.213 22.6661L22.2705 23.0687C22.5581 22.9537 22.6731 22.7811 22.9032 22.6086L23.6509 22.1484Z" fill="#262626"/>
<path d="M30.0921 20.9461C30.6098 20.9461 31.0699 21.1762 31.3575 21.5788C31.4919 21.7555 31.5898 21.9572 31.6452 22.1721C31.7007 22.387 31.7127 22.6108 31.6806 22.8305C31.6484 23.0501 31.5728 23.2611 31.458 23.4511C31.3433 23.6411 31.1918 23.8063 31.0124 23.937C31.4726 24.0521 31.9327 24.3397 32.2778 24.6848C32.7955 25.3175 33.1981 26.1802 33.1406 27.043C33.083 27.5031 32.9105 27.9057 32.6804 28.2508C32.2203 28.9986 31.4726 29.5162 30.6673 29.8613L31.1275 30.379C31.3 30.7816 31.3575 31.1842 31.3575 31.6444C31.3 32.3346 31.0124 33.0248 30.4948 33.5424C29.9007 34.1105 29.1286 34.4559 28.3091 34.5202C27.7339 34.5777 27.1012 34.5777 26.5261 34.4052C26.4685 34.8078 26.3535 35.268 26.181 35.6706C25.7934 36.3541 25.1771 36.8788 24.4405 37.1524C23.704 37.426 22.8945 37.4308 22.1548 37.166C21.4645 36.8784 20.8894 36.3608 20.5443 35.7856C19.6815 36.3033 18.7612 36.4758 17.7834 36.4758C16.9782 36.5333 16.0004 36.4758 15.3102 36.0732C14.8501 35.9006 14.5625 35.5555 14.2749 35.2104C14.1023 35.0379 13.9873 34.8653 13.9298 34.5777C13.2971 35.0954 12.4343 35.2104 11.6866 35.0954C11.1114 34.9228 10.5938 34.6353 10.3062 34.1176C10.0186 33.7725 9.96108 33.2548 9.96108 32.7947H9.15584C8.6957 32.7372 8.23556 32.5071 7.83294 32.2195C7.20025 31.6444 6.6826 30.8966 6.33749 30.0914C6.22246 29.7463 6.10742 29.4012 6.10742 28.9986C6.10742 28.3659 6.33749 27.7332 6.74011 27.2155C6.56756 26.8129 6.51004 26.4103 6.62508 26.0077C6.79763 25.3175 7.31529 24.7423 7.89046 24.3972C8.40811 24.0521 9.0408 23.937 9.6735 23.9946C9.78853 23.6495 9.96108 23.4194 10.2487 23.1893C10.8814 22.6141 11.6866 22.269 12.5494 22.269C13.1245 22.269 13.6422 22.3266 14.1023 22.5566C14.3324 22.2115 14.62 22.039 14.9651 21.9239C15.5978 21.6364 16.288 21.6939 16.9207 21.9815C18.0135 22.3841 18.8763 23.0168 19.9116 23.4194C20.1992 23.6495 20.6018 23.5919 21.0044 23.6495C21.407 23.707 21.8096 23.6495 22.2123 23.5919C22.3848 23.5344 22.6149 23.5344 22.7299 23.4194L23.8228 22.8442L24.9731 21.9815C25.4332 21.6939 26.0084 21.4063 26.5836 21.4638C26.8137 21.5213 26.9862 21.6364 27.1012 21.8089C27.9892 21.2279 29.0312 20.9274 30.0921 20.9461Z" fill="#262626"/>
<path d="M16.232 26.2882C16.4046 26.2307 16.5196 26.2882 16.5196 26.4032C16.5196 26.5758 16.3471 26.7483 16.1745 26.8058C16.0019 26.6333 16.0595 26.4032 16.232 26.2882ZM17.6699 26.9784L19.7406 27.381L21.4661 27.4961C21.8687 27.5536 22.2138 27.4961 22.5589 27.6111C22.5014 27.7261 22.3864 27.7836 22.2138 27.8412C20.7878 28.0658 19.3287 27.9475 17.9575 27.4961C17.785 27.4385 17.5549 27.3235 17.4974 27.1509C17.4399 27.0359 17.5549 26.9209 17.6699 26.9784Z" fill="#FFDECC"/>
<path d="M15.9443 0.00631233C17.5685 0.00954249 19.1878 0.183043 20.7758 0.523968C21.4084 0.69652 21.9836 0.811555 22.5588 1.04162L24.5719 1.78935C25.1471 1.9619 25.6647 2.307 26.2399 2.53707L27.1602 2.88218L28.8282 3.22728C29.1158 3.34232 29.3458 3.51487 29.4609 3.80246C29.6334 4.14756 29.5759 4.49266 29.4609 4.83777L30.036 5.12535C30.3236 5.41294 30.4387 5.81556 30.3236 6.21818C30.2086 6.44825 29.9785 6.6208 29.7485 6.73584C28.5246 7.36351 27.1148 7.52696 25.7798 7.19598L23.249 6.6208L19.6829 5.64301C16.6342 4.59995 13.3159 4.66103 10.3076 5.81556L10.0775 6.6208C9.84747 7.54108 9.67492 8.46136 9.6174 9.38163V10.3594L9.55988 10.8196C9.38733 11.2222 9.04223 11.6248 8.81216 12.0274C8.12195 13.0627 7.48926 14.1556 6.9716 15.2484L6.85657 16.0536V18.2968C6.85657 18.5844 6.9716 18.8145 6.79905 19.0445C5.93629 18.9295 5.07353 18.6994 4.15325 18.4694C4.03822 18.4694 3.86567 18.4694 3.75063 18.3543L3.34801 17.8367C3.11794 17.6641 3.06042 17.319 2.94539 17.0314C2.54277 15.8236 2.42773 14.4432 2.42773 13.1203C2.42773 11.5098 2.71532 9.95681 3.00291 8.40384C3.23298 7.54108 3.57808 6.73584 3.9807 5.98811C4.55588 4.83777 5.36112 3.85997 6.28139 2.99721C7.20167 2.07694 8.2945 1.44425 9.50236 0.984107C11.5674 0.249275 13.7542 -0.0826526 15.9443 0.00631233ZM5.3036 19.0445C5.87877 19.0445 6.45395 19.2171 6.9716 19.3321C7.20167 19.3896 7.48926 19.5047 7.66181 19.6772C7.83436 19.7923 7.77684 20.0223 7.60429 20.0799C7.08664 20.2524 6.68402 20.0799 6.22388 19.9648C5.87877 19.8498 5.41863 19.7348 5.07353 19.5047C4.9585 19.4472 4.78594 19.2746 4.90098 19.1596C5.01601 19.0445 5.18857 19.0445 5.3036 19.0445ZM30.4387 25.7741C30.4962 25.8891 30.4962 25.9466 30.3811 26.0617L30.4387 25.7741Z" fill="#262626"/>
</svg>
