<svg width="33" height="45" viewBox="0 0 33 45" fill="none" xmlns="http://www.w3.org/2000/svg">
<path d="M19.112 2.40457C21.4702 2.74968 23.7134 3.66995 25.6115 5.10789C27.222 6.31575 28.4873 7.92624 29.3501 9.76679C30.0978 11.3773 30.5005 13.2178 30.4429 15.0009C30.3854 15.8636 30.2704 16.7264 29.9828 17.5316H29.8678L29.9253 16.3238C29.9828 14.5982 29.8102 12.9302 29.1776 11.3198C28.6024 9.59424 27.5671 8.04127 26.3017 6.77589C23.886 4.4752 20.665 3.20982 17.329 3.1523C15.1591 3.11643 13.0108 3.58633 11.054 4.52477C9.09729 5.4632 7.38596 6.84439 6.05559 8.55893C4.35228 10.8605 3.53549 13.6989 3.7549 16.5538L3.86994 17.9918C4.33007 17.9918 4.96277 17.9918 5.30787 18.3944L5.13532 18.5669L4.15752 18.6245C3.46731 18.682 2.77711 18.912 2.25945 19.3722C1.68726 19.9865 1.34226 20.778 1.28166 21.6154C0.99407 23.4559 1.97186 25.354 3.52483 26.3893C4.44511 26.9645 5.59546 27.2521 6.68828 26.9069C6.91835 26.7919 7.20594 26.6194 7.49353 26.7344C7.66608 26.7919 7.7236 26.9645 7.78111 27.137C8.95109 29.4896 10.7409 31.4783 12.9577 32.8887C13.4178 33.2914 13.993 33.6365 14.5682 33.9241C15.6035 34.3842 16.7538 34.7293 17.8466 35.0169L19.6872 35.477C19.9748 35.5345 20.2049 35.5345 20.4349 35.6496L20.2049 35.7071C18.7669 35.8221 17.444 35.5345 16.0636 35.1319C15.3734 34.9594 14.7407 34.7293 14.108 34.4417C12.3008 33.5212 10.6662 32.2953 9.27656 30.8181L9.3916 32.4286C9.44911 33.4064 9.3916 34.4417 9.04649 35.4195C8.81642 36.1097 8.4138 36.7999 7.95366 37.3751C7.37849 37.9503 6.68828 38.4679 5.99808 38.8705C5.4229 39.2732 4.79021 39.6758 4.15752 39.9059L3.23725 40.1934L3.7549 39.6758L5.53794 38.5254L6.80332 37.5477C7.77368 36.7215 8.42475 35.5821 8.64387 34.3267C8.75891 33.5214 8.75891 32.7162 8.75891 31.8534V30.3005C8.18373 29.4952 7.49353 28.6325 7.20594 27.6547C6.22815 28.1148 5.02028 28.0573 4.04249 27.5972C3.06469 27.1945 2.20193 26.5043 1.56924 25.6991C0.879036 24.7213 0.476415 23.6285 0.36138 22.4781C0.246345 21.3278 0.476415 20.1774 1.22414 19.2571C1.7418 18.682 2.48952 18.2218 3.23725 18.0493C3.00718 17.244 2.89214 16.3813 2.89214 15.5185C2.93946 13.6168 3.3894 11.7466 4.21229 10.0314C5.03518 8.31627 6.21231 6.79503 7.66608 5.56803C9.23669 4.2528 11.0712 3.28982 13.0457 2.7441C15.0203 2.19837 17.0889 2.08259 19.112 2.40457Z" fill="#262626"/>
<path d="M26.3013 6.78175C27.5667 8.04713 28.602 9.6001 29.1772 11.3256C29.8099 12.9361 29.9824 14.6041 29.9249 16.3296L29.8674 17.5375L29.5798 18.4002L29.4648 19.148L29.5798 22.3689C29.5798 23.5768 29.6373 24.7847 29.5223 25.9925L29.3497 28.6958C29.2347 29.6161 28.9471 30.4789 28.5445 31.2841C27.9118 32.3194 27.049 33.1822 26.0137 33.8149C25.266 34.275 24.4608 34.5051 23.6555 34.7352L21.4699 35.3679L20.4921 35.5404C20.4921 35.5979 20.5496 35.6554 20.6646 35.6554C21.1248 35.943 21.6424 35.943 22.1601 35.8855C21.9875 36.2881 21.93 36.6908 22.045 37.1509C22.2176 37.5535 22.6777 37.7836 23.0228 37.9561C23.713 38.3012 24.4032 38.3588 25.0935 38.4738C25.4961 38.8189 25.8987 39.279 26.0137 39.8542C26.1288 40.3143 26.1288 40.7745 25.8987 41.1771C25.6111 41.7523 25.0935 42.2124 24.5183 42.5C23.7706 42.9601 22.9653 43.3052 22.1026 43.5353C17.9033 44.5405 13.5238 44.5208 9.33371 43.4778C8.35592 43.2477 7.43564 42.9601 6.57288 42.5C5.88267 42.1549 5.24998 41.7523 4.73233 41.2346C4.44474 40.832 4.21467 40.4294 4.15715 39.9117C4.78984 39.6817 5.42253 39.279 5.99771 38.8764C6.68792 38.4738 7.37812 37.9561 7.9533 37.381C8.41343 36.8058 8.81606 36.1156 9.04613 35.4254C9.39123 34.4476 9.44875 33.4123 9.39123 32.4345L9.27619 30.824L10.5416 32.1469C11.6344 33.0096 12.8423 33.8724 14.1076 34.4476C14.7403 34.7352 15.373 34.9652 16.0632 35.1378C17.4437 35.5404 18.7666 35.828 20.2045 35.713L20.4346 35.6554C20.2045 35.5404 19.9744 35.5404 19.6868 35.4829L17.8463 35.0228C16.7534 34.7352 15.6031 34.3901 14.5678 33.9299L12.8998 32.9521C12.2671 32.4345 11.5769 31.9743 11.0017 31.3992C9.67284 30.1929 8.58051 28.7495 7.78074 27.1429C7.72323 26.9703 7.66571 26.7978 7.49316 26.7403C7.20557 26.6252 6.91798 26.7978 6.68792 26.9128C5.59509 27.2579 4.44474 26.9703 3.52446 26.3952C2.74785 25.8825 2.1276 25.1657 1.73186 24.3235C1.33612 23.4813 1.18022 22.5463 1.28129 21.6212C1.33881 20.816 1.68391 20.0107 2.25908 19.378C2.77674 18.9179 3.46695 18.6878 4.15715 18.6303L5.13495 18.5728L5.3075 18.4002C4.9624 17.9976 4.32971 17.9976 3.86957 17.9976L3.75453 16.5597C3.53512 13.7048 4.35191 10.8664 6.05522 8.56479C7.38559 6.85025 9.09692 5.46906 11.0537 4.53063C13.0104 3.59219 15.1588 3.12229 17.3286 3.15816C20.6646 3.21568 23.8856 4.48106 26.3013 6.78175Z" fill="#FFDECC"/>
<path d="M29.5807 18.3984C29.7532 18.3984 29.7532 18.6285 29.8107 18.7435C29.9833 19.3762 30.0408 20.0664 30.0983 20.6991L30.2134 21.907C30.2709 23.1724 30.3284 24.3802 30.2709 25.6456C30.2134 26.8535 30.2134 28.1764 29.9833 29.3842C29.7389 30.6367 29.1919 31.8104 28.3899 32.8029C27.5878 33.7954 26.5552 34.5766 25.3819 35.0785C24.5192 35.4811 23.5989 35.7111 22.6211 35.8262V36.6889C22.6786 36.8615 22.7936 36.919 22.9087 37.034C23.5989 37.3791 24.2316 37.4942 24.9793 37.6667C25.6695 37.8393 26.3597 37.9543 27.0499 38.2994C26.8774 38.472 26.6473 38.5295 26.4172 38.5295C26.0146 38.587 25.5545 38.472 25.0943 38.472C24.4041 38.3569 23.7139 38.2994 23.0237 37.9543C22.6786 37.7818 22.2185 37.5517 22.0459 37.1491C21.9309 36.6889 21.9884 36.2863 22.1609 35.8837C21.6433 35.9412 21.1256 35.9412 20.6655 35.6536C20.5505 35.6536 20.4929 35.5961 20.4929 35.5386L21.4707 35.366L23.6564 34.7334C24.4616 34.5033 25.2669 34.2732 26.0146 33.8131C27.0499 33.1804 27.9127 32.3176 28.5454 31.2823C28.948 30.4771 29.2356 29.6143 29.3506 28.694L29.5232 25.9907C29.6382 24.7829 29.5807 23.575 29.5807 22.3671L29.4656 19.1462L29.5807 18.3984ZM3.23775 19.9514C3.69789 19.9514 4.21554 20.0089 4.56065 20.354C4.84823 20.5841 5.13582 20.8717 5.25085 21.2168C5.30837 21.3893 5.25085 21.5619 5.13582 21.6769L4.38809 22.1371C3.98547 22.4822 3.98547 23.2299 4.38809 23.575C4.7332 23.8626 5.19334 24.0351 5.59596 24.2077C5.71099 24.2077 5.88354 24.2652 5.94106 24.3802C5.88354 24.4953 5.76851 24.5528 5.65348 24.5528C5.0783 24.5528 4.50313 24.3802 4.04299 24.0351C3.7554 23.8626 3.58285 23.575 3.52534 23.2874C3.4103 22.8273 3.4103 22.3096 3.7554 21.907C3.98547 21.5619 4.38809 21.3893 4.79072 21.2168C4.56065 20.9292 4.38809 20.5841 3.98547 20.4691C3.58285 20.2965 3.12271 20.2965 2.72009 20.1815L3.23775 19.9514Z" fill="#262626"/>
<path d="M28.0267 16.2734C28.2568 16.2734 28.4868 16.2734 28.6019 16.446C28.8319 16.6185 28.8319 17.0212 28.5444 17.1937C28.3718 17.3087 28.1993 17.3087 27.9692 17.3087L26.9339 17.5388C26.9339 17.9414 26.8764 18.4016 26.7038 18.8042C26.5888 19.0918 26.3587 19.3219 26.1286 19.4944C25.7835 19.667 25.3809 19.5519 25.1508 19.2643L24.9783 18.8042C24.8057 18.9768 24.6907 19.1493 24.4606 19.2643C24.2881 19.3219 24.2306 19.2643 24.2306 19.0918C24.2881 18.7467 24.4606 18.4591 24.6907 18.229C25.2963 17.3902 26.137 16.7498 27.1064 16.3885L28.0267 16.2734ZM14.1075 17.0787C14.7402 17.0787 15.3154 17.1937 15.8905 17.3087C16.6958 17.5388 17.501 17.7689 18.1912 18.3441C18.3638 18.5166 18.6514 18.6892 18.7089 18.9192C18.7089 19.0343 18.7089 19.0918 18.5939 19.0918L17.9612 18.8042C17.386 18.5166 16.6958 18.3441 16.0056 18.229C15.8905 18.7467 15.7755 19.2643 15.4304 19.7245C15.2003 19.9545 14.9128 20.0696 14.5676 20.0696C14.1075 20.0121 13.6474 19.782 13.3598 19.4369C13.0722 19.0343 13.0147 18.6316 12.9572 18.114L12.1519 18.3441C11.9794 18.4016 11.8068 18.4591 11.6343 18.4016C11.3467 18.3441 11.2316 18.0565 11.2892 17.7689C11.3467 17.5388 11.5767 17.4238 11.8068 17.3663C12.497 17.0787 13.3598 17.0212 14.1075 17.0787Z" fill="#262626"/>
<path d="M16.2939 10.5791C17.2142 10.6366 18.192 10.9817 18.9397 11.5569C19.1123 11.7294 19.3424 11.8444 19.3999 12.0745C19.4574 12.1895 19.3424 12.3621 19.2273 12.3046C18.7672 12.2471 18.3646 12.017 17.9044 11.902C17.5018 11.7294 17.0417 11.6144 16.5815 11.6144C16.1789 11.5569 15.7188 11.6144 15.3161 11.6719C14.4534 11.7869 13.5906 12.1895 12.8429 12.5922L11.635 13.1098L11.5775 13.0523C11.635 12.8222 11.7501 12.5346 11.9226 12.3621C12.2677 11.7869 12.9004 11.4418 13.4756 11.1542C14.3383 10.7516 15.3161 10.5215 16.2939 10.5791ZM27.4523 10.8091C27.7399 10.9242 28.085 11.0967 28.3151 11.3843C28.5451 11.6144 28.6026 11.902 28.5451 12.2471L27.2222 11.8444C26.8196 11.7294 26.4745 11.7869 26.0719 11.7294C25.6693 11.7294 25.2091 11.7869 24.864 12.017L24.1163 12.4771H23.9437C23.8862 12.3046 23.9437 12.132 24.0588 12.017C24.3464 11.4993 24.8065 11.1542 25.3242 10.9817C26.0144 10.7516 26.7046 10.6366 27.4523 10.8091Z" fill="#262626"/>
<path d="M23.4252 23.6328V23.6903C23.1951 24.1505 22.7925 24.5531 22.2749 24.7256C22.1023 24.7832 21.8722 24.7832 21.7572 24.6681V24.4381C22.1598 24.1505 22.6775 23.9204 23.1376 23.7478L23.4252 23.6328Z" fill="#262626"/>
<path fill-rule="evenodd" clip-rule="evenodd" d="M15.3737 25.6428L14.5684 25.4128H14.5109C14.3959 25.3553 14.2233 25.3553 14.1658 25.4703C14.1083 25.5278 14.1658 25.6428 14.2233 25.6428L14.5684 25.8154L14.6834 25.8729C16.0059 26.5409 17.4214 27.0062 18.8822 27.2533C18.8822 27.656 18.9972 28.0586 19.2848 28.4037C19.5724 28.8063 19.975 29.1514 20.4927 29.324C21.0679 29.554 21.7006 29.4965 22.2757 29.2664C22.8509 29.0364 23.311 28.5762 23.5411 28.0011C23.6561 27.771 23.6561 27.4834 23.6561 27.2533L24.6915 26.9082V26.8507L24.8065 26.7357C24.2505 26.7303 23.6945 26.7303 23.1385 26.7357C21.4868 26.8794 19.8233 26.802 18.192 26.5056L15.9488 25.8729L15.8338 25.8154L15.3737 25.6428ZM19.3424 27.3109C19.3999 27.886 19.86 28.3462 20.3777 28.6337C21.0679 29.1514 22.2182 28.9213 22.6784 28.1736C22.8509 27.9435 22.9084 27.656 22.9659 27.3684V27.3109L21.4705 27.4259L21.528 27.4834C21.528 27.656 21.5855 27.771 21.4705 27.9435C21.3555 28.1161 21.1254 28.1161 21.0679 27.9435C20.9528 27.771 20.9528 27.5984 21.0104 27.4259C20.5315 27.3817 20.0522 27.3434 19.5724 27.3109H19.3424Z" fill="#262626"/>
<path d="M13.6485 -0.0078125H15.9492C18.7675 0.107222 21.5283 0.624878 24.2316 1.25757C25.8421 1.66019 27.3376 2.17785 28.7755 2.98309C29.5232 3.44323 30.3285 4.0184 30.9037 4.70861C31.5939 5.45633 32.054 6.37661 32.2266 7.3544C32.4566 8.56227 32.4566 9.82765 32.054 11.0355C31.7664 11.8983 31.2488 12.761 30.501 13.3362C29.4657 14.199 28.1428 14.7741 26.8199 14.8317C26.7049 14.8892 26.5899 14.8317 26.5899 14.6591L27.05 13.7388C26.4336 14.3429 25.6854 14.7957 24.8643 15.0617C24.6343 15.1192 24.2892 15.1768 24.0591 15.0617V14.7741C24.0591 13.9114 24.0016 13.1061 23.7715 12.3009C23.599 11.3806 23.1388 10.6329 22.7362 9.82765C22.8512 10.6904 22.7937 11.6107 22.6212 12.4734C22.4486 13.2787 22.1035 13.9689 21.5283 14.5441C21.4133 14.7741 21.1257 14.8317 20.8956 14.7166L20.7806 14.314C20.6656 13.6813 20.378 13.1061 20.0904 12.531C19.5727 11.3806 18.825 10.4028 17.9623 9.48254C16.7029 8.2235 15.2207 7.20933 13.5909 6.49164C13.6756 8.50255 13.482 10.5155 13.0158 12.4734C12.7857 13.2787 12.4406 14.0839 11.9229 14.7741C11.7504 15.0042 11.5203 15.3493 11.2327 15.4643H10.8301C10.8876 14.7741 10.8876 14.0839 10.7726 13.3937C10.6576 12.761 10.485 12.0708 10.1974 11.4956C10.0249 12.531 9.4497 13.3937 8.75949 14.199C8.24183 14.6591 7.72418 15.1192 7.09149 15.4643V19.3755L7.149 21.101C7.149 21.2736 6.97645 21.5612 6.8039 21.6187C6.51631 21.5612 6.28624 21.4461 6.05618 21.2736C5.36597 20.8135 4.73328 20.2958 4.1581 19.6631C3.21421 18.6155 2.49298 17.387 2.03817 16.0523C1.58336 14.7175 1.40446 13.3043 1.51231 11.8983C1.70436 9.4225 2.61094 7.05572 4.12202 5.0852C5.63309 3.11467 7.68368 1.62515 10.0249 0.79743C11.1752 0.337291 12.3831 0.0497048 13.6485 -0.0078125Z" fill="#262626"/>
</svg>
